<svg version="1.1" id="Layer_1" xmlns="http://www.w3.org/2000/svg" xmlns:xlink="http://www.w3.org/1999/xlink" x="0px" y="0px"
	 width="100%" viewBox="0 0 924 637" enable-background="new 0 0 924 637" xml:space="preserve">

<path fill="#FFFFFF" opacity="1.000000" stroke="none" 
	d="
M764.000000,389.911713 
	C764.000000,322.150085 764.000000,254.876938 764.000000,187.245132 
	C765.596741,187.157379 767.028564,187.010620 768.460388,187.010010 
	C799.441040,186.996841 830.431030,186.533020 861.399292,187.152939 
	C884.697998,187.619339 901.950195,203.544678 905.695068,225.740829 
	C907.738403,237.851776 907.652954,250.564667 906.702271,262.865021 
	C905.865967,273.684998 900.552307,283.376251 893.200928,291.478149 
	C902.874451,298.754639 907.491272,308.643463 909.034668,320.343628 
	C911.003845,335.272430 910.707336,350.020294 905.981995,364.444214 
	C900.530579,381.084717 888.901001,391.017395 872.033203,394.943420 
	C868.893005,395.674286 865.581543,395.948578 862.347961,395.956207 
	C831.367493,396.029388 800.386780,396.000000 769.406128,396.000000 
	C767.768311,396.000000 766.130554,396.000000 764.000000,396.000000 
	C764.000000,393.946991 764.000000,392.173615 764.000000,389.911713 
M820.500366,310.000000 
	C814.079285,310.000000 807.658203,310.000000 801.241455,310.000000 
	C801.241455,325.929504 801.241455,341.310699 801.241455,356.999420 
	C819.240601,356.999420 837.020813,357.464630 854.744507,356.670410 
	C859.144653,356.473236 864.586792,353.171204 867.417969,349.604156 
	C874.068726,341.224762 875.117188,331.473938 870.090820,321.527130 
	C865.453979,312.351288 857.632080,309.625000 847.939392,309.939545 
	C839.134949,310.225250 830.313904,310.000000 820.500366,310.000000 
M850.011292,273.977753 
	C851.080627,273.652039 852.132141,273.132935 853.222290,273.032196 
	C860.040161,272.402222 867.621704,264.894806 868.798035,258.986206 
	C869.783081,254.038300 869.077454,248.736969 868.982666,243.594666 
	C868.822510,234.905365 859.662659,226.024323 850.872192,226.007950 
	C835.545227,225.979416 820.218201,225.993103 804.891174,226.012772 
	C803.630432,226.014389 802.369873,226.196533 801.324341,226.278030 
	C801.324341,242.390869 801.324341,258.126495 801.324341,273.998566 
	C817.463196,273.998566 833.278015,273.998566 850.011292,273.977753 
z"/>
<path fill="#FFFFFF" opacity="1.000000" stroke="none" 
	d="
M124.001205,384.929535 
	C122.536514,378.092102 121.073036,371.686096 119.545570,365.000000 
	C110.440926,365.000000 101.300705,365.000000 92.160484,365.000000 
	C83.008003,365.000000 73.855515,365.000000 64.235558,365.000000 
	C61.737549,375.257294 59.244549,385.494019 56.734890,395.799133 
	C44.215572,395.799133 31.784269,395.799133 18.539036,395.799133 
	C36.502033,326.007111 54.366432,256.598145 72.279419,187.000427 
	C85.102882,187.000427 97.747795,186.903076 110.385719,187.155273 
	C111.611458,187.179718 113.536308,189.179428 113.888382,190.576736 
	C123.271912,227.819077 132.490997,265.102844 141.739029,302.379333 
	C147.814697,326.868927 153.943588,351.345490 159.933975,375.855927 
	C161.527527,382.376160 162.698441,388.999664 164.151291,395.999237 
	C152.264969,395.999237 140.796173,396.088135 129.333679,395.860107 
	C128.202454,395.837585 126.661827,394.069092 126.097351,392.769562 
	C125.084099,390.436829 124.668030,387.844666 124.001205,384.929535 
M75.997200,315.461243 
	C74.642975,321.178833 73.288750,326.896423 71.926498,332.647919 
	C85.211136,332.647919 98.075096,332.647919 112.030312,332.647919 
	C105.784691,304.802246 99.664894,277.517609 93.324326,249.248611 
	C92.296234,250.386993 91.270508,251.008591 91.062454,251.835831 
	C89.613037,257.598755 88.378929,263.415314 86.989990,269.194061 
	C83.350861,284.334900 79.667862,299.465179 75.997200,315.461243 
z"/>
<path fill="#FFFFFF" opacity="1.000000" stroke="none" 
	d="
M596.005493,263.045166 
	C598.692139,270.400635 603.493835,277.339294 603.639771,284.374512 
	C604.407532,321.393555 603.999268,358.436920 603.999268,396.000000 
	C603.136169,396.000000 601.532104,396.000000 599.928040,396.000000 
	C571.775757,396.000000 543.623413,395.990021 515.471130,396.003265 
	C494.568329,396.013092 479.592804,381.708008 475.952118,361.782715 
	C474.029755,351.261719 473.993286,340.579437 477.317200,330.711304 
	C480.543579,321.132690 486.751709,312.791626 496.425232,308.002136 
	C504.796417,303.857422 513.717712,302.848022 522.934082,302.957367 
	C536.758423,303.121368 550.586548,302.943329 564.412109,303.041046 
	C567.742798,303.064575 569.498840,302.325684 568.033325,298.625458 
	C567.861694,298.192322 567.954285,297.629791 568.007141,297.136108 
	C569.366455,284.458557 559.673035,275.051941 547.278320,275.957062 
	C540.062378,276.484039 532.712402,275.941711 525.611389,277.068970 
	C518.039490,278.270905 514.790283,282.227631 512.716003,289.843079 
	C500.626160,289.843079 488.503204,289.843079 475.945984,289.843079 
	C478.116058,272.291840 483.609955,256.960632 499.815704,247.675049 
	C509.129730,242.338272 519.074219,239.428284 529.965393,239.945480 
	C536.281250,240.245407 542.631897,240.216934 548.951477,239.959732 
	C568.714050,239.155380 584.424194,246.561050 596.005493,263.045166 
M565.995544,334.000000 
	C550.356934,334.000000 534.717285,333.912994 519.081116,334.106964 
	C517.062256,334.131989 514.626526,335.135040 513.129700,336.501801 
	C507.478912,341.661560 507.080322,355.133057 512.329590,360.699829 
	C513.698914,362.151917 515.786316,363.827942 517.565430,363.852631 
	C534.626038,364.089661 551.691284,363.994446 568.518982,363.994446 
	C568.518982,354.691742 568.571472,345.842102 568.446716,336.994934 
	C568.432495,335.989624 567.422424,334.998322 565.995544,334.000000 
z"/>
<path fill="#FFFFFF" opacity="1.000000" stroke="none" 
	d="
M284.000000,315.003357 
	C283.347412,306.025604 283.401978,297.413696 281.835938,289.107300 
	C280.377869,281.373627 272.156616,275.881592 264.314117,276.038452 
	C256.417328,276.196381 248.345718,275.740692 240.681351,277.241913 
	C231.977066,278.946808 227.098816,286.032532 227.009476,294.156250 
	C226.653137,326.559235 226.332870,358.962585 226.001740,391.365845 
	C225.988205,392.689362 226.000000,394.013123 226.000000,395.667450 
	C214.143799,395.667450 202.405869,395.667450 190.333008,395.667450 
	C190.333008,344.150024 190.333008,292.425079 190.333008,240.000000 
	C197.988602,240.000000 205.903488,240.000000 213.818375,240.000000 
	C216.817215,240.000000 219.840317,239.775436 222.804565,240.095657 
	C224.267105,240.253647 225.620941,241.417648 228.105911,242.673050 
	C242.155228,237.720779 258.247406,239.197952 273.825012,240.383652 
	C296.130096,242.081436 313.248383,257.655701 318.939972,280.872803 
	C319.706604,284.000031 319.949432,287.324402 319.956329,290.558533 
	C320.027466,323.878815 320.000000,357.199280 320.000000,390.519714 
	C320.000000,392.161621 320.000000,393.803528 320.000000,395.721741 
	C308.031921,395.721741 296.295715,395.721741 284.000000,395.721741 
	C284.000000,369.012695 284.000000,342.257599 284.000000,315.003357 
z"/>
<path fill="#FFFFFF" opacity="1.000000" stroke="none" 
	d="
M659.981628,422.836578 
	C661.836975,415.941284 664.148682,409.551300 665.357178,402.959076 
	C666.228882,398.203796 666.796509,392.844238 665.496826,388.330994 
	C658.537109,364.163422 650.913574,340.187592 643.586609,316.125031 
	C636.023376,291.286499 628.535828,266.424927 621.032410,241.568237 
	C620.943909,241.274902 621.085266,240.912109 621.149170,240.291046 
	C632.519104,240.291046 643.922791,240.291046 655.694214,240.291046 
	C665.106323,271.795898 674.587097,303.530579 684.067871,335.265259 
	C684.536438,335.193054 685.005005,335.120819 685.473572,335.048615 
	C689.642212,321.325684 693.888306,307.625702 697.958008,293.873505 
	C702.143066,279.731323 706.020142,265.497131 710.287170,251.380356 
	C713.742493,239.949219 713.910461,239.997818 725.836121,240.000809 
	C733.164978,240.002640 740.493774,240.008972 747.822571,240.030258 
	C748.139343,240.031174 748.455505,240.202408 748.954102,240.347183 
	C728.227600,310.094879 707.502197,379.838806 686.712036,449.800720 
	C675.392273,449.800720 663.942261,449.800720 651.762756,449.800720 
	C654.539734,440.814117 657.252625,432.034698 659.981628,422.836578 
z"/>
<path fill="#FFFFFF" opacity="1.000000" stroke="none" 
	d="
M376.754181,383.389801 
	C362.110016,335.495239 347.677368,287.959900 333.116028,240.000626 
	C344.174072,240.000626 354.913513,239.906067 365.645905,240.138260 
	C366.793732,240.163101 368.528656,241.895386 368.931549,243.170441 
	C374.724396,261.503174 380.341705,279.891449 385.987610,298.270508 
	C389.327393,309.142365 392.635132,320.024078 395.979889,330.894348 
	C396.423065,332.334625 397.000244,333.733643 397.965607,336.391541 
	C407.659790,303.451691 416.951447,271.879608 426.287048,240.158173 
	C437.908325,240.158173 449.545563,240.158173 461.654755,240.158173 
	C446.375916,292.045441 431.113434,343.877075 415.812531,395.839294 
	C404.115173,395.839294 392.479950,395.839294 380.250000,395.839294 
	C379.198395,391.967987 378.082062,387.858521 376.754181,383.389801 
z"/>

</svg>