<svg version="1.0" xmlns="http://www.w3.org/2000/svg"
 width="96.000000pt" height="96.000000pt" viewBox="0 0 96.000000 96.000000"
 preserveAspectRatio="xMidYMid meet">

<g transform="translate(0.000000,96.000000) scale(0.100000,-0.100000)"
fill="#000000" stroke="none">
<path d="M185 855 c-24 -23 -25 -30 -25 -140 0 -97 -2 -115 -15 -115 -9 0 -27
-11 -40 -25 -24 -23 -25 -29 -25 -155 0 -126 1 -132 25 -155 13 -14 31 -25 40
-25 12 0 15 -12 15 -55 0 -46 4 -60 25 -80 l24 -25 271 0 271 0 24 25 25 24 0
278 0 278 -98 98 -97 97 -198 0 c-197 0 -198 0 -222 -25z m375 -135 l0 -80 80
0 c73 0 80 -2 80 -20 0 -19 -7 -20 -240 -20 l-240 0 0 100 0 100 160 0 160 0
0 -80z m-300 -220 c11 -11 20 -29 20 -40 0 -26 -34 -60 -60 -60 -17 0 -20 -7
-20 -40 0 -33 -3 -40 -20 -40 -19 0 -20 7 -20 100 l0 100 40 0 c27 0 47 -7 60
-20z m173 9 c31 -14 47 -48 47 -97 -1 -62 -38 -92 -114 -92 l-46 0 0 100 0
100 45 0 c24 0 55 -5 68 -11z m207 -9 c0 -17 -7 -20 -40 -20 -33 0 -40 -3 -40
-20 0 -16 7 -20 30 -20 23 0 30 -4 30 -20 0 -16 -7 -20 -30 -20 -28 0 -30 -2
-30 -40 0 -33 -3 -40 -20 -40 -19 0 -20 7 -20 100 l0 100 60 0 c53 0 60 -2 60
-20z m80 -300 l0 -40 -240 0 -240 0 0 40 0 40 240 0 240 0 0 -40z" fill='white'/>
<path d="M200 460 c0 -15 5 -20 18 -18 9 2 17 10 17 18 0 8 -8 16 -17 18 -13
2 -18 -3 -18 -18z"/>
<path d="M360 420 c0 -54 2 -60 21 -60 41 0 59 18 59 60 0 42 -18 60 -59 60
-19 0 -21 -6 -21 -60z"/>
</g>
</svg>
